<svg width="90" height="19" xmlns="http://www.w3.org/2000/svg"><path d="M4.604.548c.565-.007.999.23 1.302.711.303.48.434 1.033.392 1.66a2.325 2.325 0 01-.097.525C8.09 1.746 9.9.957 11.628 1.078c1.957.154 2.866 1.27 2.728 3.346a4.92 4.92 0 01-.068.557c-.264 1.46-.905 2.778-1.925 3.958a7.56 7.56 0 01-2.642 2.008s-.908 1.577.885 3.301l.057.054c.195.188.43.38.706.56.465.289 1.411.725 2.472.35l-.019-.066-.023-.082a5.045 5.045 0 01-.153-1.371c.022-1.701.826-3.318 2.412-4.852 1.743-1.68 3.797-2.52 6.165-2.52 2.189 0 3.35.84 3.484 2.52.09 1.071-.536 2.174-1.876 3.308-1.43 1.24-3.228 2.028-5.394 2.363.402.525 1.005.788 1.81.788 1.607 0 3.36-.389 5.26-1.166 1.359-.545 2.429-1.11 3.21-1.697l.022-.114c.19-.977.296-1.738.319-2.285.044-.378-.057-.567-.302-.567-.112 0-.395.155-.852.467a1.04 1.04 0 01-.696.283c-.418.01-.624-.158-.617-.503.002-.148.08-.292.263-.469.02-.018.037-.036.095-.078.277-.234.934-.805 1.974-1.716.938-.82 1.575-1.239 1.91-1.26.58-.042 1.05.184 1.407.677.357.494.536 1.066.536 1.717 0 .21-.022.41-.067.599a5.929 5.929 0 011.173-1.26c1.027-.84 2.177-1.313 3.45-1.418 1.095-.084 1.877.157 2.346.724.38.463.558 1.124.536 1.985.156-.126.324-.262.502-.41.514-.566 1.017-1.018 1.508-1.354.826-.567 1.686-.882 2.58-.945 1.072-.084 1.843.157 2.312.724.402.463.58 1.124.536 1.985-.023.589-.173 1.445-.452 2.568-.28 1.124-.42 1.77-.42 1.938-.021.44.023.745.135.913.111.169.38.252.804.252.312 0 .87-.315 1.675-.945.303-.238.578-.468.83-.692.27-1.223.871-2.41 1.816-3.561 1.519-1.848 3.507-2.95 5.964-3.308a8.656 8.656 0 011.273-.095c.96 0 1.82.137 2.58.41.759.273 1.24.588 1.44.945-.29.799-.49 1.386-.602 1.764-.29 1.135-.47 2.416-.536 3.844-.046.988.346 1.48 1.172 1.48.491 0 1.14-.293 1.943-.882.344-.242.659-.492.948-.747.045-.156.091-.315.141-.481.436-1.45.653-2.226.653-2.332 0-.545-.2-.819-.602-.819-.128 0-.482.203-1.056.603a.987.987 0 01-.536.192c-.403.023-.608-.131-.616-.464-.004-.174.093-.346.324-.542l2.118-1.805c.96-.798 1.675-1.218 2.144-1.26.737-.063 1.278.142 1.625.614.346.473.474 1.087.385 1.843-.29 1.282-.603 2.91-.938 4.883-.023.904.324 1.355 1.039 1.355.312 0 .871-.315 1.675-.945.335-.262.638-.516.912-.763a62.8 62.8 0 00.73-3.08c.022-.42-.08-.63-.302-.63-.125 0-.47.195-1.026.582a.989.989 0 01-.548.201c-.403.024-.608-.13-.616-.463-.004-.17.09-.34.28-.51.112-.083.815-.703 2.111-1.859.916-.819 1.541-1.228 1.876-1.228 1.028 0 1.542.683 1.542 2.048 0 .315-.034.63-.101.945a13.143 13.143 0 011.709-1.26c1.384-.84 2.714-1.313 3.986-1.418 1.273-.106 1.843.157 2.312.724.402.463.581 1.124.536 1.985-.022.589-.173 1.445-.452 2.568-.28 1.124-.419 1.77-.419 1.938-.022.44.022.745.134.913.112.169.38.252.805.252.312 0 .87-.315 1.675-.945.67-.525 1.217-1.018 1.641-1.48l.637.787c-.626 1.113-1.486 2.122-2.58 3.025-1.497 1.218-2.994 1.827-4.49 1.827-1.451 0-2.155-.756-2.11-2.269.023-.693.152-1.517.385-2.473.234-.956.362-1.686.385-2.19.045-.776-.18-1.165-.674-1.165-.743 0-1.553.557-2.43 1.67-.968 1.218-1.474 2.51-1.519 3.875-.045 1.344.033 2.237.235 2.678-2.628.06-4.007-.827-4.142-2.658-.246.242-.507.476-.784.705-1.496 1.218-2.993 1.827-4.49 1.827-.691 0-1.222-.21-1.59-.63-.369-.42-.542-.966-.52-1.639.002-.072.008-.151.015-.232-.237.23-.487.455-.752.674-1.496 1.218-2.993 1.827-4.49 1.827-1.451 0-2.144-.704-2.077-2.111-.58.525-1.351.987-2.311 1.386-1.072.441-2.044.651-2.915.63-1.273-.021-2.156-.514-2.647-1.48a3.835 3.835 0 01-.376-1.209c-.317.33-.66.65-1.03.957-1.497 1.218-2.994 1.827-4.49 1.827-1.452 0-2.156-.756-2.11-2.269.021-.672.161-1.48.418-2.426.256-.945.396-1.68.419-2.205.022-.798-.235-1.197-.77-1.197-.582 0-1.274.651-2.078 1.953-.849 1.366-1.307 2.689-1.374 3.97-.044.903.045 1.596.268 2.08-1.563.041-2.658-.2-3.283-.725-.558-.462-.816-1.229-.77-2.3a7.918 7.918 0 01.335-2.017c.2-.672.312-1.27.334-1.795.045-.777-.256-1.166-.904-1.166-.559 0-1.162.599-1.81 1.796a8.736 8.736 0 00-1.072 3.749c-.044 1.176.034 1.996.235 2.457-1.541.042-2.635-.263-3.283-.913-.536-.547-.782-1.376-.737-2.49.004-.099.012-.208.021-.322-.705.654-1.671 1.307-2.902 1.961-2.368 1.281-4.77 1.922-7.204 1.922-1.342 0-2.401-.313-3.178-.938-.034-.027-.065-.057-.117-.102l-.08-.07-.085-.084a2.345 2.345 0 01-.075-.074s-1.222 1.223-3.145 1.355c-.25 0-.497-.027-.737-.086-.687-.167-1.956-.722-3.076-1.827-1-.986-1.852-2.424-2.246-3.493 0 0-.082-.222-.172-.474l-.078-.219a.85.85 0 00-.113-.176c-.093-.103-.154-.156-.357-.136-.211.02-.32.203-.374.38a2.41 2.41 0 00-.04.218.67.67 0 01-.018.13c-.01.078-.019.167-.028.274-.087.984.052 1.734.415 2.25.23.31.471.472.72.486.314.019.641-.04.986-.178-.952 2.05-2.363 2.99-4.235 2.821C.598 18.065-.16 17.041.028 15.151c.112-1.071.606-3.154 1.48-6.248.875-3.093 1.273-3.884 1.35-4.742.089-.387-.044-.59-.398-.612-.146-.008-.502.158-1.074.493a.942.942 0 01-.409.1c-.383.007-.571-.149-.564-.465.003-.16.098-.315.338-.508.21-.152.885-.668 2.025-1.548C3.681.906 4.29.549 4.604.548zm53.63 8.512l-.13.002c-.893.042-1.753.61-2.58 1.7-.736.967-1.116 1.797-1.138 2.49-.023.882.312 1.323 1.005 1.323.782 0 1.574-.535 2.379-1.607.759-1.008 1.16-1.89 1.206-2.646.022-.42 0-.714-.067-.882-.134-.273-.403-.399-.805-.378zm-37.217.002c-.67 0-1.352.436-2.044 1.307-.693.872-1.05 1.707-1.072 2.505v.41a7.623 7.623 0 002.848-1.733c.647-.672.982-1.218 1.005-1.639.022-.567-.224-.85-.737-.85zM9.273 3.949c-.73-.043-1.503.424-2.32 1.398-.75.882-1.18 1.692-1.29 2.432-.043.332 0 .606.133.82.132.214.387.323.763.324.836.01 1.664-.491 2.484-1.506.685-.864 1.06-1.63 1.125-2.294.07-.743-.228-1.135-.895-1.174zM69.767.529c.439 0 .804.2 1.096.6.292.4.427.806.407 1.218-.021.607-.282 1.189-.783 1.747-.563.63-1.231.945-2.003.945-1.189 0-1.763-.606-1.721-1.819.02-.63.339-1.237.954-1.819.616-.582 1.3-.873 2.05-.873z" fill="#FFF" fill-rule="nonzero"/></svg>